<svg width="101" height="50" viewBox="0 0 101 50" fill="none" xmlns="http://www.w3.org/2000/svg">
<path d="M69.4226 5.40676C68.0597 12.7082 69.2555 20.1215 69.2465 27.4583C69.2457 29.5382 69.1308 31.6054 68.8415 33.682C68.7112 34.592 70.1379 34.751 70.2682 33.8411C71.2887 26.5015 69.9756 19.104 70.1907 11.7324C70.2486 9.65883 70.449 7.60117 70.8207 5.56262C70.8906 5.19487 70.5578 4.81108 70.1869 4.76973C69.8159 4.72838 69.4957 5.01046 69.4226 5.40676Z" fill="black"/>
<path d="M74.738 26.1349C73.9925 27.1207 73.2757 28.1097 72.7457 29.2351C72.2951 30.1671 71.927 31.1371 71.4479 32.0659C71.2258 32.5034 70.9784 32.9092 70.6739 33.3085C70.5405 33.467 70.4042 33.654 70.2424 33.8094C70.179 33.8601 69.6462 34.234 69.643 34.2625C69.6526 34.1769 69.8015 34.3958 69.7318 34.2435C69.6843 34.1516 69.5797 34.0532 69.5321 33.9612C69.3611 33.6822 69.19 33.4031 68.9903 33.1209L67.8875 31.3512C67.0795 30.0478 66.2462 28.7127 65.4382 27.4094C65.2448 27.07 64.6964 27.0667 64.4394 27.298C64.1223 27.5515 64.1316 27.9858 64.3281 28.2967C65.1108 29.5684 65.922 30.8432 66.7047 32.1149L67.8835 33.9797C68.2288 34.5094 68.5488 35.2672 69.1543 35.5369C70.3399 36.0447 71.5104 34.6151 72.0687 33.753C72.7255 32.7861 73.1348 31.7051 73.6298 30.6337C74.2105 29.3117 75.0037 28.1579 75.8569 26.9819C76.4311 26.237 75.2836 25.3869 74.738 26.1349ZM55.8565 12.2849C55.4199 18.2741 55.3829 24.3077 55.7548 30.3003C55.8557 31.9871 55.9818 33.7057 56.1683 35.402C56.2694 36.3088 57.6804 36.0906 57.5793 35.1838C56.9917 29.3116 56.8131 23.3983 57.0087 17.4979C57.0791 15.8302 57.1526 14.134 57.28 12.4726C57.3565 11.5277 55.9297 11.3687 55.8565 12.2849Z" fill="black"/>
<path d="M59.9906 30.657C59.5527 31.4749 59.0863 32.2896 58.6485 33.1074C58.4296 33.5163 58.2106 33.9252 57.9632 34.331C57.7791 34.686 57.5919 35.0696 57.3541 35.3897C57.3223 35.4151 57.2874 35.469 57.2557 35.4943C57.2144 35.6053 57.2304 35.4626 57.2811 35.526C57.4744 35.6054 57.56 35.615 57.4808 35.5483L57.4047 35.4532C57.3287 35.358 57.2526 35.2629 57.1797 35.1392C56.9041 34.7618 56.5997 34.3813 56.3209 34.0323C55.7409 33.2743 55.1579 32.5449 54.5779 31.7869C53.9948 31.0575 52.8847 31.9449 53.4679 32.6743C54.1492 33.5591 54.8306 34.444 55.5152 35.3003C55.8447 35.7126 56.1584 36.2676 56.5832 36.6038C57.0333 36.9718 57.6103 36.9783 58.0797 36.6551C58.4888 36.3541 58.7108 35.9166 58.933 35.4791C59.1899 34.9878 59.4723 34.5281 59.7293 34.0368C60.2687 33.0858 60.7826 32.1031 61.322 31.1521C61.5028 30.8256 61.2367 30.3626 60.9355 30.2134C60.5424 30.1119 60.1714 30.3305 59.9906 30.657ZM45.3181 10.1569L42.9588 37.5405C42.7295 40.115 42.532 42.664 42.3027 45.2385C42.2295 46.1548 43.6562 46.3139 43.7295 45.3976L46.0889 18.0139C46.3181 15.4395 46.5156 12.8904 46.7449 10.3159C46.8498 9.37424 45.4231 9.21523 45.3181 10.1569Z" fill="black"/>
<path d="M48.8278 37.7614C47.4672 38.8231 46.5535 40.2813 45.6431 41.7108C44.7675 43.0865 43.8633 44.4591 42.4648 45.3432C42.8515 45.5018 43.2415 45.632 43.6282 45.7906C42.8592 41.805 41.7669 37.8698 40.4049 34.0202C40.2718 33.6587 39.7963 33.519 39.4633 33.6552C39.0987 33.8168 38.9653 34.2352 39.0984 34.5968C40.4477 38.3005 41.4672 42.112 42.2172 46.0089C42.328 46.5702 42.9145 46.7511 43.3807 46.4564C46.273 44.6123 47.1145 40.9505 49.7437 38.8747C50.4446 38.2883 49.5572 37.1783 48.8278 37.7614ZM26.6939 13.1013C26.4296 16.2496 26.8026 19.3823 27.2359 22.4928C27.6913 25.6635 28.1434 28.8629 28.5988 32.0336C28.8614 33.8251 29.1239 35.6166 29.3578 37.405C29.4875 38.315 30.8985 38.0967 30.7688 37.1867C30.3134 34.0159 29.8549 30.8737 29.428 27.706C28.9915 24.6241 28.4664 21.5611 28.1758 18.4665C28.0211 16.7448 27.9551 15.0041 28.0921 13.2571C28.1939 12.3441 26.7672 12.185 26.6939 13.1013Z" fill="black"/>
<path d="M31.2891 27.3358C30.6791 30.7344 30.0691 34.1331 29.4305 37.5286C29.8491 37.4019 30.2677 37.2752 30.7148 37.1517C29.33 35.0618 27.9769 32.9466 26.5921 30.8566C26.3671 30.5426 25.8788 30.5171 25.5934 30.7452C25.2762 30.9988 25.257 31.43 25.4821 31.744C26.8668 33.8339 28.2199 35.9492 29.6047 38.0391C29.9755 38.6005 30.7683 38.2266 30.8889 37.6623C31.4989 34.2636 32.1089 30.865 32.7475 27.4695C32.8174 27.1017 32.4846 26.7179 32.1137 26.6766C31.6824 26.6574 31.3589 26.968 31.2891 27.3358Z" fill="black"/>
</svg>
