<svg width="77" height="86" viewBox="0 0 77 86" fill="none" xmlns="http://www.w3.org/2000/svg">
<rect width="77" height="86" fill="#0D0D0D"/>
<path d="M3.3 40V5H9.9V34H25.9V40H3.3ZM30.4046 40V5H37.0046V40H30.4046ZM43.5932 40V5H56.1432L63.0932 35.5H63.9932V5H70.4932V40H57.9432L50.9932 9.5H50.0932V40H43.5932ZM3.3 80V45H9.9V58.9H10.8L22.15 45H30.6L16 62.25L31.1 80H22.4L10.8 65.8H9.9V80H3.3ZM46.3632 80.7C43.6632 80.7 41.2799 80.2167 39.2132 79.25C37.1465 78.2833 35.5299 76.9 34.3632 75.1C33.1965 73.3 32.6132 71.1333 32.6132 68.6V67.2H39.1132V68.6C39.1132 70.7 39.7632 72.2833 41.0632 73.35C42.3632 74.3833 44.1299 74.9 46.3632 74.9C48.6299 74.9 50.3132 74.45 51.4132 73.55C52.5465 72.65 53.1132 71.5 53.1132 70.1C53.1132 69.1333 52.8299 68.35 52.2632 67.75C51.7299 67.15 50.9299 66.6667 49.8632 66.3C48.8299 65.9 47.5632 65.5333 46.0632 65.2L44.9132 64.95C42.5132 64.4167 40.4465 63.75 38.7132 62.95C37.0132 62.1167 35.6965 61.0333 34.7632 59.7C33.8632 58.3667 33.4132 56.6333 33.4132 54.5C33.4132 52.3667 33.9132 50.55 34.9132 49.05C35.9465 47.5167 37.3799 46.35 39.2132 45.55C41.0799 44.7167 43.2632 44.3 45.7632 44.3C48.2632 44.3 50.4799 44.7333 52.4132 45.6C54.3799 46.4333 55.9132 47.7 57.0132 49.4C58.1465 51.0667 58.7132 53.1667 58.7132 55.7V57.2H52.2132V55.7C52.2132 54.3667 51.9465 53.3 51.4132 52.5C50.9132 51.6667 50.1799 51.0667 49.2132 50.7C48.2465 50.3 47.0965 50.1 45.7632 50.1C43.7632 50.1 42.2799 50.4833 41.3132 51.25C40.3799 51.9833 39.9132 53 39.9132 54.3C39.9132 55.1667 40.1299 55.9 40.5632 56.5C41.0299 57.1 41.7132 57.6 42.6132 58C43.5132 58.4 44.6632 58.75 46.0632 59.05L47.2132 59.3C49.7132 59.8333 51.8799 60.5167 53.7132 61.35C55.5799 62.1833 57.0299 63.2833 58.0632 64.65C59.0965 66.0167 59.6132 67.7667 59.6132 69.9C59.6132 72.0333 59.0632 73.9167 57.9632 75.55C56.8965 77.15 55.3632 78.4167 53.3632 79.35C51.3965 80.25 49.0632 80.7 46.3632 80.7ZM68.6905 80.7C67.3571 80.7 66.2238 80.2667 65.2905 79.4C64.3905 78.5 63.9405 77.35 63.9405 75.95C63.9405 74.55 64.3905 73.4167 65.2905 72.55C66.2238 71.65 67.3571 71.2 68.6905 71.2C70.0571 71.2 71.1905 71.65 72.0905 72.55C72.9905 73.4167 73.4405 74.55 73.4405 75.95C73.4405 77.35 72.9905 78.5 72.0905 79.4C71.1905 80.2667 70.0571 80.7 68.6905 80.7ZM68.6905 64C67.3571 64 66.2238 63.5667 65.2905 62.7C64.3905 61.8 63.9405 60.65 63.9405 59.25C63.9405 57.85 64.3905 56.7167 65.2905 55.85C66.2238 54.95 67.3571 54.5 68.6905 54.5C70.0571 54.5 71.1905 54.95 72.0905 55.85C72.9905 56.7167 73.4405 57.85 73.4405 59.25C73.4405 60.65 72.9905 61.8 72.0905 62.7C71.1905 63.5667 70.0571 64 68.6905 64Z" fill="#D9D9D9"/>
</svg>
