<svg width="16" height="16" viewBox="0 0 16 16" fill="none" xmlns="http://www.w3.org/2000/svg">
<path d="M11.3389 9.33325V1.33325Z" fill="#FDBA72" fill-opacity="0.5"/>
<path d="M11.3389 9.33325V1.33325" stroke="#0A0A0A" stroke-width="1.33333" stroke-linecap="round" stroke-linejoin="round"/>
<path d="M6.00573 12.0799L6.67239 9.33325H2.78573C2.57873 9.33325 2.37458 9.28506 2.18944 9.19249C2.0043 9.09992 1.84326 8.96551 1.71906 8.79992C1.59486 8.63432 1.51093 8.44209 1.4739 8.23843C1.43687 8.03478 1.44777 7.8253 1.50573 7.62659L3.05906 2.29325C3.13984 2.0163 3.30826 1.77301 3.53906 1.59992C3.76985 1.42682 4.05057 1.33325 4.33906 1.33325H13.3391C13.6927 1.33325 14.0318 1.47373 14.2819 1.72378C14.5319 1.97382 14.6724 2.31296 14.6724 2.66659V7.99992C14.6724 8.35354 14.5319 8.69268 14.2819 8.94273C14.0318 9.19278 13.6927 9.33325 13.3391 9.33325H11.4991C11.251 9.33338 11.0079 9.40271 10.7971 9.53344C10.5863 9.66417 10.4161 9.85111 10.3057 10.0733L8.00573 14.6666C7.69134 14.6627 7.3819 14.5878 7.10052 14.4475C6.81915 14.3072 6.57311 14.1052 6.38079 13.8565C6.18847 13.6077 6.05485 13.3187 5.9899 13.0111C5.92495 12.7035 5.93036 12.3852 6.00573 12.0799Z" fill="#FDBA72" fill-opacity="0.5" stroke="#0A0A0A" stroke-width="1.33333" stroke-linecap="round" stroke-linejoin="round"/>
</svg>
