<svg width="16" height="16" viewBox="0 0 16 16" fill="none" xmlns="http://www.w3.org/2000/svg">
<path d="M4.67236 6.66675V14.6667Z" fill="#6AF9D7" fill-opacity="0.5"/>
<path d="M4.67236 6.66675V14.6667" stroke="#0A0A0A" stroke-width="1.33333" stroke-linecap="round" stroke-linejoin="round"/>
<path d="M10.0055 3.91992L9.33887 6.66659H13.2255C13.4325 6.66659 13.6367 6.71478 13.8218 6.80735C14.007 6.89992 14.168 7.03432 14.2922 7.19992C14.4164 7.36551 14.5003 7.55775 14.5374 7.7614C14.5744 7.96506 14.5635 8.17454 14.5055 8.37325L12.9522 13.7066C12.8714 13.9835 12.703 14.2268 12.4722 14.3999C12.2414 14.573 11.9607 14.6666 11.6722 14.6666H2.6722C2.31858 14.6666 1.97944 14.5261 1.72939 14.2761C1.47934 14.026 1.33887 13.6869 1.33887 13.3333V7.99992C1.33887 7.6463 1.47934 7.30716 1.72939 7.05711C1.97944 6.80706 2.31858 6.66659 2.6722 6.66659H4.5122C4.76026 6.66645 5.00336 6.59713 5.21417 6.4664C5.42498 6.33567 5.59515 6.14873 5.70553 5.92659L8.00553 1.33325C8.31992 1.33715 8.62936 1.41203 8.91074 1.55232C9.19211 1.6926 9.43815 1.89466 9.63047 2.14339C9.82279 2.39212 9.95641 2.68109 10.0214 2.98872C10.0863 3.29635 10.0809 3.61468 10.0055 3.91992Z" fill="#6AF9D7" fill-opacity="0.5" stroke="#0A0A0A" stroke-width="1.33333" stroke-linecap="round" stroke-linejoin="round"/>
</svg>
